<svg xmlns="http://www.w3.org/2000/svg" viewBox="0 0 294.03 117.61"><defs><style>.cls-1{fill:#112d4e;}.cls-2{fill:#fff;}.cls-3{fill:#3f72af;}</style></defs><title>Zuri Logo</title><g id="Layer_2" data-name="Layer 2"><g id="Layer_1-2" data-name="Layer 1"><path class="cls-1" d="M34.76,49.57,56.05,24.24H35.72V13.34H70.48v9.3L50.47,48H70.86v10.9H34.76Z"/><path class="cls-1" d="M85.73,59.51c-3.42,0-6-1-7.82-3.11s-2.69-5.1-2.69-9.07V25.14H87.4V44.57a5.3,5.3,0,0,0,1,3.46,3.33,3.33,0,0,0,2.72,1.22A7.21,7.21,0,0,0,94,48.61,7.53,7.53,0,0,0,97,45.79V25.14h12.19V45.4a4.16,4.16,0,0,0,.51,2.41,2.49,2.49,0,0,0,1.79.8V58.87a27.3,27.3,0,0,1-5.12.64c-4.15,0-6.54-1.56-7.19-4.68l-.25-1.22a13.75,13.75,0,0,1-5.64,4.52A19.16,19.16,0,0,1,85.73,59.51Z"/><path class="cls-1" d="M139.33,35.53a24.6,24.6,0,0,0-6.41.77,7.82,7.82,0,0,0-4.29,2.56v20H116.44V25.14H127.6v6.41a14.17,14.17,0,0,1,4.46-5.22,9.91,9.91,0,0,1,5.74-1.83,11.27,11.27,0,0,1,1.53.06Z"/><path class="cls-1" d="M15.84,57.08H27.25L43,102.61H30.33l-2.76-8.92H15.45l-2.69,8.92H0Zm9.74,28.28-4-14.11L17.31,85.36Z"/><path class="cls-1" d="M43.09,85.74a18.38,18.38,0,0,1,1.21-6.63,16.33,16.33,0,0,1,3.56-5.58,17.3,17.3,0,0,1,5.8-3.85,20.57,20.57,0,0,1,8-1.44,19.3,19.3,0,0,1,10.3,2.56,16.58,16.58,0,0,1,6.18,6.61L66.23,81a5.4,5.4,0,0,0-4.68-2.5,5.51,5.51,0,0,0-4.23,1.89,7.67,7.67,0,0,0-1.73,5.35,7.68,7.68,0,0,0,1.73,5.36A5.51,5.51,0,0,0,61.55,93a5.42,5.42,0,0,0,4.68-2.5l11.86,3.59a16.56,16.56,0,0,1-6.18,6.6,19.21,19.21,0,0,1-10.3,2.57,20.39,20.39,0,0,1-8-1.45A17.28,17.28,0,0,1,47.86,98a16.43,16.43,0,0,1-3.56-5.58A18.43,18.43,0,0,1,43.09,85.74Z"/><path class="cls-1" d="M91.88,103.25a12.88,12.88,0,0,1-4.68-.84,11.37,11.37,0,0,1-3.75-2.27A10.45,10.45,0,0,1,81,96.71a10.32,10.32,0,0,1-.9-4.3,10,10,0,0,1,1.09-4.68,11.22,11.22,0,0,1,3-3.65,13.87,13.87,0,0,1,4.59-2.38,19.71,19.71,0,0,1,5.86-.83,15.9,15.9,0,0,1,6.8,1.28v-1a4.35,4.35,0,0,0-1.38-3.53,6.9,6.9,0,0,0-4.45-1.15,14.85,14.85,0,0,0-5.33.93,26.8,26.8,0,0,0-5.13,2.72l-3.52-7.56a27.38,27.38,0,0,1,15.19-4.3q8.09,0,12.44,3.59c2.91,2.39,4.36,6,4.36,10.77v6.54a4.16,4.16,0,0,0,.51,2.41,2.52,2.52,0,0,0,1.8.8v10.26q-1.47.31-2.79.48a21.22,21.22,0,0,1-2.34.16,8.66,8.66,0,0,1-5-1.19,5.52,5.52,0,0,1-2.21-3.49l-.26-1.22a15.49,15.49,0,0,1-5.19,4.39A13.68,13.68,0,0,1,91.88,103.25Zm3.65-8.72a7.85,7.85,0,0,0,2.25-.35,8.75,8.75,0,0,0,2-.93A5.37,5.37,0,0,0,101,92.12a2.06,2.06,0,0,0,.45-1.25v-2.5a18.52,18.52,0,0,0-2.37-.64,12.08,12.08,0,0,0-2.31-.26A6.12,6.12,0,0,0,93,88.56a3.32,3.32,0,0,0-1.47,2.76,2.82,2.82,0,0,0,1.12,2.31A4.42,4.42,0,0,0,95.53,94.53Z"/><path class="cls-1" d="M158,92.35v10.26a26.48,26.48,0,0,1-5.13.64c-4.14,0-6.54-1.56-7.18-4.68l-.25-1.22a10.6,10.6,0,0,1-4.68,4.49,14.4,14.4,0,0,1-6.29,1.41,15.81,15.81,0,0,1-6.38-1.28,14.75,14.75,0,0,1-5-3.62,16.84,16.84,0,0,1-3.3-5.58,20.48,20.48,0,0,1-1.19-7.09,21.58,21.58,0,0,1,1.09-6.92,17.11,17.11,0,0,1,3-5.55,14,14,0,0,1,4.65-3.65,13.33,13.33,0,0,1,6-1.32,12.39,12.39,0,0,1,6,1.48,10.17,10.17,0,0,1,4.2,4.17V27.35a5.27,5.27,0,0,1,5.27-5.27h6.91V89.15a4.15,4.15,0,0,0,.51,2.4A2.42,2.42,0,0,0,158,92.35Z"/><path class="cls-2" d="M137.78,93c2.23,0,4.15-1.16,5.77-3.46v-6a8.47,8.47,0,0,0-2.63-3.62,5.76,5.76,0,0,0-3.65-1.38,5.26,5.26,0,0,0-2.47.58,5.68,5.68,0,0,0-1.92,1.6,8.16,8.16,0,0,0-1.28,2.37,8.55,8.55,0,0,0-.48,2.89,7.11,7.11,0,0,0,1.82,5.12A6.34,6.34,0,0,0,137.78,93Z"/><path class="cls-1" d="M179.59,103.25a21.19,21.19,0,0,1-7.89-1.38,16.7,16.7,0,0,1-5.8-3.75,16.13,16.13,0,0,1-3.56-5.45,17.48,17.48,0,0,1-1.22-6.48,20.17,20.17,0,0,1,1.19-6.92,16.06,16.06,0,0,1,3.52-5.71,17.14,17.14,0,0,1,5.77-3.88,22.78,22.78,0,0,1,15.94,0,17.3,17.3,0,0,1,5.8,3.85,15.8,15.8,0,0,1,3.52,5.58A19.11,19.11,0,0,1,198,87.7c-.06.66-.13,1.25-.22,1.76H174.07a4.73,4.73,0,0,0,2,3.88A7,7,0,0,0,180,94.53a8.16,8.16,0,0,0,3.75-.9,4.48,4.48,0,0,0,2.34-2.5l10.32,3a16.23,16.23,0,0,1-6.31,6.6A20,20,0,0,1,179.59,103.25ZM185,82.15a6.24,6.24,0,0,0-1.79-3.84,5.79,5.79,0,0,0-7.57,0,6.24,6.24,0,0,0-1.79,3.84Z"/><path class="cls-1" d="M256.4,102.61H244.21v-19a5.38,5.38,0,0,0-1-3.62,3.1,3.1,0,0,0-2.4-1.13,5,5,0,0,0-3.11,1.35,7.86,7.86,0,0,0-2.41,3.46v18.92H223.12v-19a5.38,5.38,0,0,0-1-3.62,3.12,3.12,0,0,0-2.41-1.13,5,5,0,0,0-3.11,1.35,7.85,7.85,0,0,0-2.4,3.46v18.92H202V68.88h11v5a11.41,11.41,0,0,1,4.94-4.2,17.68,17.68,0,0,1,7.43-1.44,12,12,0,0,1,3.59.48A8.77,8.77,0,0,1,231.62,70a7.44,7.44,0,0,1,1.79,1.85,9.76,9.76,0,0,1,1.06,2.18,12.11,12.11,0,0,1,4.9-4.29,15.76,15.76,0,0,1,7.09-1.54,9.79,9.79,0,0,1,5.29,1.25,8.67,8.67,0,0,1,3,3.11,11.78,11.78,0,0,1,1.34,4,25.11,25.11,0,0,1,.33,3.84Z"/><path class="cls-1" d="M261.52,106a14.9,14.9,0,0,0,5,1.09q3.92,0,4.3-4.48L258.57,68.88h12.51l6.41,23.4,5.19-23.4H294l-11.41,37.76a16.38,16.38,0,0,1-2.18,4.53,14.9,14.9,0,0,1-7.7,5.67,15.94,15.94,0,0,1-4.93.77h-.07a6.35,6.35,0,0,1-6.22-6.42Z"/><circle class="cls-3" cx="149.72" cy="7.25" r="7.25"/></g></g></svg>