<svg width="46" height="24" viewBox="0 0 46 24" fill="none" xmlns="http://www.w3.org/2000/svg">
<path opacity="0.35" d="M3.2028 0.958496H38.5244C39.721 0.958496 40.691 1.92855 40.691 3.12516V20.7565C40.691 21.9531 39.721 22.9231 38.5244 22.9231H3.2028C2.00618 22.9231 1.03613 21.9531 1.03613 20.7565V3.12516C1.03613 1.92854 2.00618 0.958496 3.2028 0.958496Z" stroke="black"/>
<path opacity="0.4" d="M43.0391 7.88818V15.9933C44.5262 15.3069 45.4932 13.71 45.4932 11.9408C45.4932 10.1715 44.5262 8.57464 43.0391 7.88818" fill="black"/>
<path d="M4.23145 5.84456C4.23145 5.10818 4.8284 4.51123 5.56478 4.51123H36.1613C36.8977 4.51123 37.4946 5.10818 37.4946 5.84456V18.0374C37.4946 18.7737 36.8977 19.3707 36.1613 19.3707H5.56478C4.8284 19.3707 4.23145 18.7737 4.23145 18.0374V5.84456Z" fill="black"/>
</svg>
