<svg width="297" height="48" viewBox="0 0 297 48" fill="none" xmlns="http://www.w3.org/2000/svg">
<path d="M56.6744 23.9244C56.6744 21.3952 54.5724 19.345 51.9793 19.345C49.3862 19.345 47.2842 21.3952 47.2842 23.9244C47.2842 26.4536 49.3862 28.5039 51.9793 28.5039C54.5724 28.5039 56.6744 26.4536 56.6744 23.9244Z" fill="white"/>
<path d="M22.5277 32.0268C22.302 32.6233 21.942 33.1632 21.4741 33.6064C21.0197 34.0627 20.4665 34.4139 19.8546 34.6341C19.3582 34.8221 18.6127 35.0459 17.2394 35.1068C15.7538 35.1729 15.3084 35.1871 11.5476 35.1871C7.78634 35.1871 7.34094 35.1733 5.85576 35.1072C4.48249 35.0459 3.73653 34.8221 3.2406 34.6341C2.62863 34.4139 2.07506 34.0627 1.62105 33.6064C1.15319 33.1632 0.793119 32.6236 0.567048 32.0268C0.374289 31.5427 0.14485 30.8151 0.0823437 29.4757C0.0145973 28.0271 0 27.5927 0 23.9241C0 20.2559 0.0145973 19.8215 0.0823437 18.3725C0.14485 17.0331 0.374289 16.3059 0.567048 15.8218C0.793119 15.2249 1.15281 14.6854 1.62067 14.2422C2.07506 13.7858 2.62826 13.4346 3.24022 13.2145C3.73653 13.0261 4.48249 12.8023 5.85576 12.7414C7.34094 12.6753 7.78597 12.6614 11.5472 12.6614C15.3088 12.6614 15.7542 12.6753 17.239 12.7414C18.6123 12.8023 19.3582 13.0261 19.8546 13.2145C21.083 13.6767 22.0539 14.6237 22.5277 15.8218C22.7205 16.3059 22.9499 17.0331 23.0128 18.3725C23.0806 19.8215 23.0948 20.2559 23.0948 23.9241C23.0948 27.5927 23.0806 28.0271 23.0128 29.4757C22.9503 30.8151 22.7209 31.5427 22.5277 32.0268ZM11.5476 16.8699C7.55279 16.8699 4.31443 20.0281 4.31443 23.9245C4.31443 27.8208 7.55279 30.979 11.5476 30.979C15.542 30.979 18.7803 27.8208 18.7803 23.9245C18.7803 20.0281 15.542 16.8699 11.5476 16.8699ZM19.0663 29.6093C18.1328 29.6093 17.376 30.3474 17.376 31.2579C17.376 32.1684 18.1328 32.9066 19.0663 32.9066C19.9998 32.9066 20.7566 32.1684 20.7566 31.2579C20.7562 30.3474 19.9998 29.6093 19.0663 29.6093Z" fill="white"/>
<path d="M36.3371 47.8487C22.7919 47.8487 11.8076 37.1354 11.8076 23.9243C11.8076 10.7133 22.7919 -1.14441e-05 36.3371 -1.14441e-05C49.8823 -1.14441e-05 60.8666 10.7133 60.8666 23.9243C60.8666 37.1354 49.8823 47.8487 36.3371 47.8487ZM50.3375 18.2605C50.2693 16.7981 50.0309 15.7996 49.6828 14.9257C48.9511 13.0803 47.4554 11.6216 45.5634 10.9079C44.6677 10.5684 43.6437 10.3362 42.1446 10.2694C40.6426 10.2026 40.1628 10.1865 36.3375 10.1865C32.5119 10.1865 32.0324 10.2026 30.53 10.2694C29.031 10.3362 28.0069 10.5684 27.1112 10.9079C26.171 11.2529 25.3199 11.7935 24.6162 12.4926C23.8998 13.1785 23.3455 14.009 22.9918 14.9257C22.6437 15.7993 22.4053 16.7981 22.3372 18.2601C22.2679 19.7255 22.2518 20.1935 22.2518 23.9243C22.2518 27.6552 22.2679 28.1232 22.3368 29.5882C22.4049 31.0506 22.643 32.049 22.991 32.923C23.3448 33.8396 23.8995 34.6701 24.6162 35.3561C25.3195 36.0552 26.171 36.5958 27.1109 36.9408C28.0069 37.2803 29.0306 37.5125 30.53 37.5793C32.032 37.6461 32.5119 37.6622 36.3371 37.6622C40.1624 37.6622 40.6422 37.6461 42.1442 37.5789C43.6437 37.5125 44.6673 37.2803 45.5634 36.9412C46.5032 36.5962 47.3547 36.0552 48.0584 35.3561C48.7748 34.6698 49.3295 33.8396 49.6828 32.923C50.0313 32.049 50.2693 31.0506 50.3378 29.5882C50.4063 28.1232 50.4224 27.6552 50.4224 23.9243C50.4224 20.1935 50.4063 19.7255 50.3375 18.2605V18.2605Z" fill="white"/>
<path d="M139.059 23.9244C139.059 10.7133 128.075 0 114.53 0C100.984 0 90 10.7133 90 23.9244C90 37.1354 100.984 47.8487 114.53 47.8487C114.674 47.8487 114.817 47.8458 114.961 47.8432V29.2191H109.691V23.2289H114.961V18.8209C114.961 13.7086 118.161 10.9261 122.836 10.9261C125.075 10.9261 127 11.089 127.561 11.1616V16.5046H124.337C121.793 16.5046 121.3 17.6837 121.3 19.4137V23.2289H127.383L126.59 29.2191H121.3V46.9244C131.553 44.0576 139.059 34.8447 139.059 23.9244Z" fill="white"/>
<path d="M209.872 7.00464C200.291 -2.33686 184.76 -2.33461 175.182 7.00978C165.604 16.3542 165.606 31.502 175.187 40.8435C184.768 50.185 200.299 50.1827 209.877 40.8383C214.477 36.3506 217.06 30.2645 217.059 23.9189C217.058 17.5744 214.472 11.4902 209.872 7.00464ZM205.149 33.3259C205.148 33.327 205.147 33.3281 205.146 33.3291V33.3212L203.903 34.5253C202.296 36.1128 199.955 36.7659 197.73 36.2478C195.488 35.6626 193.357 34.7311 191.417 33.4886C189.616 32.3654 187.946 31.0524 186.438 29.573C185.051 28.23 183.805 26.7553 182.718 25.171C181.529 23.4662 180.588 21.6091 179.921 19.6525C179.157 17.3539 179.79 14.8317 181.557 13.1372L183.012 11.7178C183.417 11.3213 184.074 11.3199 184.481 11.7146C184.482 11.7156 184.483 11.7166 184.484 11.7178L189.079 16.1995C189.485 16.5942 189.487 17.2354 189.082 17.6318C189.081 17.6328 189.08 17.6338 189.079 17.6349L186.381 20.2666C185.606 21.0135 185.509 22.2003 186.152 23.0578C187.128 24.364 188.208 25.5932 189.382 26.7341C190.69 28.0161 192.113 29.1823 193.633 30.2191C194.512 30.8166 195.702 30.7159 196.462 29.9798L199.071 27.396C199.475 26.9996 200.133 26.9982 200.539 27.3929C200.54 27.3939 200.541 27.3949 200.542 27.396L205.146 31.8938C205.552 32.2883 205.554 32.9295 205.149 33.3259Z" fill="white"/>
<path d="M271.53 0C257.984 0 247 10.7133 247 23.9244C247 37.1354 257.984 47.8487 271.53 47.8487C285.075 47.8487 296.059 37.1354 296.059 23.9244C296.059 10.7133 285.075 0 271.53 0ZM282.729 18.6537C282.74 18.8891 282.746 19.1257 282.746 19.3633C282.746 26.6196 277.082 34.987 266.726 34.9874C263.547 34.9874 260.588 34.0784 258.096 32.5207C258.537 32.5714 258.985 32.5966 259.439 32.5966C262.077 32.5966 264.505 31.719 266.432 30.246C263.967 30.2015 261.889 28.6139 261.172 26.4319C261.515 26.4962 261.868 26.5312 262.23 26.5312C262.744 26.5312 263.242 26.4637 263.715 26.3377C261.139 25.8347 259.198 23.6141 259.198 20.955C259.198 20.9302 259.198 20.9079 259.199 20.8849C259.958 21.2963 260.825 21.5438 261.749 21.5716C260.237 20.5877 259.243 18.9059 259.243 17.0007C259.243 15.9946 259.522 15.052 260.006 14.2405C262.782 17.5632 266.932 19.7485 271.611 19.9781C271.515 19.5758 271.465 19.1567 271.465 18.7259C271.465 15.6945 273.986 13.2351 277.096 13.2351C278.715 13.2351 280.178 13.9028 281.205 14.9702C282.488 14.7235 283.692 14.2664 284.781 13.6374C284.359 14.9191 283.467 15.9946 282.305 16.6747C283.444 16.5418 284.529 16.2472 285.538 15.8099C284.784 16.9112 283.829 17.8787 282.729 18.6537Z" fill="white"/>
</svg>
