<svg width="32" height="22" viewBox="0 0 32 22" fill="none" xmlns="http://www.w3.org/2000/svg">
<path fill-rule="evenodd" clip-rule="evenodd" d="M29.8738 0.133789H28.0259C27.0053 0.133789 26.178 1.04099 26.178 2.16008V19.7213C26.178 20.8404 27.0053 21.7476 28.0259 21.7476H29.8738C30.8943 21.7476 31.7216 20.8404 31.7216 19.7213V2.16008C31.7216 1.04099 30.8943 0.133789 29.8738 0.133789ZM19.4022 4.86188H21.2501C22.2707 4.86188 23.0981 5.76908 23.0981 6.88817V19.7213C23.0981 20.8404 22.2707 21.7476 21.2501 21.7476H19.4022C18.3816 21.7476 17.5542 20.8404 17.5542 19.7213V6.88817C17.5542 5.76908 18.3816 4.86188 19.4022 4.86188ZM12.6263 9.58967H10.7784C9.75777 9.58967 8.93042 10.4969 8.93042 11.616V19.7211C8.93042 20.8402 9.75777 21.7474 10.7784 21.7474H12.6263C13.6469 21.7474 14.4742 20.8402 14.4742 19.7211V11.616C14.4742 10.4969 13.6469 9.58967 12.6263 9.58967ZM4.0025 13.6424H2.15457C1.13399 13.6424 0.306641 14.5496 0.306641 15.6687V19.7213C0.306641 20.8404 1.13399 21.7476 2.15457 21.7476H4.0025C5.02309 21.7476 5.85043 20.8404 5.85043 19.7213V15.6687C5.85043 14.5496 5.02309 13.6424 4.0025 13.6424Z" fill="black"/>
</svg>
