<svg width="87" height="35" viewBox="0 0 87 35" fill="none" xmlns="http://www.w3.org/2000/svg">
<g clip-path="url(#clip0)">
<path d="M10.298 14.6776L16.5714 7.16124H10.5643V3.93573H20.8623V6.68777L14.9439 14.2041H20.9806V17.4296H10.298V14.6776Z" fill="#112D4E"/>
<path d="M25.3602 17.6072C24.3541 17.6072 23.5847 17.3113 23.052 16.6898C22.5194 16.0684 22.2531 15.1806 22.2531 13.997V7.42758H25.8633V13.1684C25.8633 13.6123 25.952 13.9674 26.1592 14.2041C26.3663 14.4408 26.6326 14.5592 26.9582 14.5592C27.2245 14.5592 27.5204 14.5 27.8163 14.3817C28.1122 14.2633 28.4082 13.9674 28.6745 13.5531V7.42758H32.2847V13.4347C32.2847 13.7898 32.3439 14.0266 32.4326 14.1449C32.5214 14.2633 32.699 14.3521 32.9653 14.3817V17.4296C32.3439 17.548 31.8408 17.6072 31.4561 17.6072C30.2428 17.6072 29.5326 17.1337 29.3255 16.2164L29.2367 15.8613C28.7633 16.4827 28.201 16.9266 27.5796 17.1929C26.9582 17.4592 26.2184 17.6072 25.3602 17.6072Z" fill="#112D4E"/>
<path d="M41.2215 10.5051C40.5113 10.5051 39.8898 10.5939 39.3276 10.7418C38.7654 10.8898 38.3215 11.1561 38.0552 11.5112V17.4296H34.4449V7.42755H37.7592V9.32143C38.1143 8.64082 38.5582 8.13776 39.0909 7.78265C39.6235 7.42755 40.1858 7.25 40.7776 7.25C41.0143 7.25 41.1623 7.25 41.2215 7.27959V10.5051V10.5051Z" fill="#112D4E"/>
<path d="M4.67551 16.8969H8.04898L12.7245 30.3612H8.96633L8.13776 27.7276H4.58673L3.78776 30.3612H0L4.67551 16.8969ZM7.57551 25.2714L6.39184 21.099L5.14898 25.2714H7.57551Z" fill="#112D4E"/>
<path d="M12.754 25.3602C12.754 24.6796 12.8724 24.0286 13.1091 23.4071C13.3459 22.7857 13.701 22.2235 14.1744 21.75C14.6479 21.2765 15.2102 20.8918 15.8908 20.6255C16.5714 20.3296 17.3704 20.2112 18.2581 20.2112C19.4714 20.2112 20.4775 20.4775 21.3061 20.9806C22.1346 21.4837 22.7265 22.1347 23.1408 22.9337L19.5897 23.9694C19.2346 23.4663 18.7908 23.2296 18.1989 23.2296C17.6959 23.2296 17.2816 23.4071 16.9561 23.7918C16.601 24.1765 16.453 24.6796 16.453 25.3898C16.453 26.0704 16.6306 26.603 16.9561 26.9877C17.3112 27.3724 17.7255 27.55 18.1989 27.55C18.7908 27.55 19.2346 27.3133 19.5897 26.8102L23.1112 27.8755C22.6969 28.6745 22.105 29.3255 21.2765 29.8286C20.4479 30.3316 19.4418 30.5979 18.2285 30.5979C17.3408 30.5979 16.5714 30.45 15.8612 30.1837C15.1806 29.8877 14.6183 29.5326 14.1448 29.0592C13.6714 28.5857 13.3459 28.0235 13.0795 27.402C12.8724 26.7214 12.754 26.0704 12.754 25.3602Z" fill="#112D4E"/>
<path d="M27.1949 30.5388C26.6918 30.5388 26.248 30.45 25.8041 30.302C25.3602 30.1245 25.0051 29.9173 24.6796 29.6214C24.3837 29.3255 24.1173 29 23.9398 28.6153C23.7622 28.2306 23.6735 27.7867 23.6735 27.3429C23.6735 26.8398 23.7918 26.3663 23.999 25.952C24.2061 25.5378 24.502 25.1827 24.8867 24.8571C25.2714 24.5612 25.7153 24.3245 26.248 24.1469C26.7806 23.9694 27.3428 23.9102 27.9939 23.9102C28.7928 23.9102 29.4735 24.0286 30.0061 24.2949V23.999C30.0061 23.5255 29.8582 23.1704 29.5918 22.9633C29.3255 22.7265 28.8816 22.6082 28.2602 22.6082C27.698 22.6082 27.1653 22.6969 26.6918 22.8745C26.2184 23.052 25.7153 23.3184 25.1826 23.6735L24.1469 21.4245C25.449 20.5663 26.9582 20.152 28.6449 20.152C30.2429 20.152 31.4561 20.5071 32.3143 21.2173C33.1724 21.9275 33.6163 22.9929 33.6163 24.4133V26.3367C33.6163 26.6918 33.6755 26.9286 33.7643 27.0469C33.8531 27.1653 34.0306 27.2541 34.2969 27.2837V30.3316C34.001 30.3908 33.7347 30.45 33.4684 30.4796C33.202 30.5092 32.9653 30.5388 32.7877 30.5388C32.1367 30.5388 31.6633 30.4204 31.3082 30.1837C30.9531 29.9469 30.7459 29.5918 30.6571 29.148L30.5684 28.7929C30.1245 29.3551 29.6214 29.799 29.0296 30.0949C28.4673 30.3908 27.8459 30.5388 27.1949 30.5388ZM28.2602 27.9643C28.4673 27.9643 28.7041 27.9347 28.9112 27.8459C29.1184 27.7571 29.3551 27.698 29.5326 27.5796C29.6806 27.4908 29.799 27.3724 29.8877 27.2541C29.9765 27.1357 30.0061 27.0173 30.0061 26.8694V26.1296C29.799 26.0408 29.5622 25.9816 29.2959 25.952C29.0296 25.8929 28.8224 25.8633 28.6153 25.8633C28.1714 25.8633 27.8163 25.9816 27.5204 26.1888C27.2245 26.3959 27.0765 26.6622 27.0765 27.0173C27.0765 27.2837 27.1949 27.5204 27.402 27.698C27.6388 27.8755 27.9347 27.9643 28.2602 27.9643Z" fill="#112D4E"/>
<path d="M46.7551 27.3133V30.3612C46.1337 30.4796 45.6306 30.5388 45.2459 30.5388C44.0327 30.5388 43.3225 30.0653 43.1153 29.148L43.0562 28.7929C42.701 29.3847 42.2572 29.8286 41.6653 30.1245C41.0735 30.3908 40.4521 30.5388 39.801 30.5388C39.1204 30.5388 38.499 30.4204 37.9072 30.1541C37.3449 29.8878 36.8419 29.5327 36.4276 29.0888C36.0133 28.6153 35.6878 28.0827 35.4511 27.4316C35.2143 26.7806 35.0959 26.1 35.0959 25.3306C35.0959 24.5908 35.2143 23.9102 35.4215 23.2888C35.6286 22.6673 35.9245 22.1051 36.3092 21.6612C36.6939 21.1878 37.1674 20.8327 37.7 20.5663C38.2327 20.3 38.8245 20.1816 39.4755 20.1816C40.1266 20.1816 40.7184 20.3296 41.251 20.6255C41.7837 20.9214 42.198 21.3357 42.4939 21.8684V16.5122V8.10816C42.4939 7.25 43.2041 6.53979 44.0623 6.53979H46.1041V26.3959C46.1041 26.7214 46.1633 26.9878 46.2521 27.1061C46.3113 27.2245 46.4888 27.3133 46.7551 27.3133Z" fill="#112D4E"/>
<path d="M40.7775 27.5204C41.4285 27.5204 41.9907 27.1653 42.4938 26.4847V24.7092C42.3162 24.2653 42.0499 23.9102 41.7244 23.6439C41.3989 23.3776 41.0142 23.2296 40.6295 23.2296C40.3632 23.2296 40.1264 23.2888 39.8897 23.4072C39.653 23.5255 39.4754 23.6735 39.3274 23.8806C39.1795 24.0878 39.0315 24.3245 38.9428 24.5908C38.854 24.8572 38.7948 25.1531 38.7948 25.449C38.7948 26.0704 38.9723 26.5735 39.3274 26.9582C39.7121 27.3133 40.1856 27.5204 40.7775 27.5204Z" fill="white"/>
<path d="M53.147 30.5388C52.2888 30.5388 51.4898 30.3908 50.8092 30.1245C50.1286 29.8582 49.5664 29.4735 49.0929 29C48.6194 28.5265 48.2939 27.9939 48.0276 27.402C47.7909 26.7806 47.6725 26.1592 47.6725 25.4786C47.6725 24.7684 47.7909 24.0878 48.0276 23.4367C48.2643 22.7857 48.6194 22.2235 49.0633 21.75C49.5368 21.2765 50.099 20.8918 50.7796 20.5959C51.4602 20.3 52.2296 20.1816 53.147 20.1816C54.0347 20.1816 54.8041 20.3296 55.5143 20.5959C56.1949 20.8918 56.7572 21.2469 57.2306 21.7204C57.7041 22.1939 58.0296 22.7561 58.2664 23.3776C58.5031 23.999 58.6215 24.65 58.6215 25.3306C58.6215 25.5082 58.6215 25.7153 58.5919 25.9225C58.5623 26.1296 58.5623 26.2776 58.5327 26.4551H51.5194C51.549 26.9878 51.7562 27.3725 52.1113 27.6092C52.4664 27.8459 52.8511 27.9643 53.2653 27.9643C53.65 27.9643 54.0347 27.8755 54.3898 27.698C54.7449 27.5204 54.9817 27.2837 55.0704 26.9582L58.1184 27.8163C57.7041 28.6153 57.0827 29.2663 56.2541 29.7694C55.396 30.302 54.3602 30.5388 53.147 30.5388ZM54.7449 24.3245C54.6857 23.851 54.5082 23.4663 54.2123 23.2C53.9164 22.9337 53.5613 22.7857 53.0878 22.7857C52.6439 22.7857 52.2592 22.9337 51.9633 23.2C51.6674 23.4663 51.4898 23.851 51.4306 24.3245H54.7449Z" fill="#112D4E"/>
<path d="M75.8735 30.3612H72.2633V24.7388C72.2633 24.2357 72.1745 23.8806 71.9673 23.6735C71.7602 23.4663 71.5235 23.3479 71.2571 23.3479C70.9612 23.3479 70.6653 23.4663 70.3398 23.7326C70.0143 23.999 69.7776 24.3541 69.6296 24.7684V30.3612H66.0194V24.7388C66.0194 24.2357 65.9306 23.8806 65.7235 23.6735C65.5163 23.4663 65.2796 23.3479 65.0133 23.3479C64.7173 23.3479 64.4214 23.4663 64.0959 23.7326C63.7704 23.999 63.5337 24.3541 63.3857 24.7684V30.3612H59.7755V20.3888H63.0306V21.8684C63.3857 21.3357 63.8592 20.9214 64.4806 20.6255C65.102 20.3296 65.8418 20.2112 66.6704 20.2112C67.0847 20.2112 67.4398 20.2704 67.7357 20.3592C68.0316 20.4479 68.298 20.5959 68.5347 20.7439C68.7418 20.9214 68.9194 21.099 69.0673 21.3061C69.1857 21.5133 69.3041 21.7204 69.3929 21.9571C69.748 21.4245 70.2214 20.9806 70.8429 20.6847C71.4643 20.3888 72.1449 20.2408 72.9439 20.2408C73.5949 20.2408 74.1276 20.3592 74.5122 20.6255C74.8969 20.8622 75.1929 21.1877 75.4 21.5428C75.6071 21.8979 75.7255 22.3122 75.7847 22.7265C75.8439 23.1408 75.8735 23.5255 75.8735 23.851V30.3612V30.3612Z" fill="#112D4E"/>
<path d="M77.3826 31.3674C77.9744 31.5745 78.4479 31.6929 78.8622 31.6929C79.6316 31.6929 80.0458 31.249 80.1346 30.3612L76.5244 20.3888H80.2234L82.1173 27.3133L83.656 20.3888H86.9999L83.6265 31.5745C83.4785 32.0776 83.2713 32.5214 82.9754 32.9061C82.7091 33.2908 82.354 33.6459 81.9693 33.9419C81.5846 34.2378 81.1703 34.4449 80.6969 34.5929C80.2234 34.7408 79.7499 34.8296 79.2469 34.8296C79.2469 34.8296 79.2469 34.8296 79.2173 34.8296C78.1816 34.8296 77.3826 33.9419 77.3826 32.9357V31.3674V31.3674Z" fill="#112D4E"/>
<path d="M44.2989 4.26122C45.4757 4.26122 46.4296 3.30732 46.4296 2.13061C46.4296 0.953907 45.4757 0 44.2989 0C43.1222 0 42.1683 0.953907 42.1683 2.13061C42.1683 3.30732 43.1222 4.26122 44.2989 4.26122Z" fill="#3F72AF"/>
</g>
<defs>
<clipPath id="clip0">
<rect width="87" height="34.8" fill="white"/>
</clipPath>
</defs>
</svg>
